<!--?xml version="1.0" encoding="utf-8"?-->
<!-- Generator: Adobe Illustrator 18.1.1, SVG Export Plug-In . SVG Version: 6.00 Build 0)  -->

<svg version="1.1" id="_x32_" xmlns="http://www.w3.org/2000/svg" xmlns:xlink="http://www.w3.org/1999/xlink" x="0px" y="0px" viewBox="0 0 512 512" style="width: 256px; height: 256px; opacity: 1;" xml:space="preserve">
<style type="text/css">
	.st0{fill:#4B4B4B;}
</style>
<g>
	<path class="st0" d="M497.618,248.108c-25.19-35.976-74.773-44.72-110.741-19.531c-35.967,25.191-44.72,74.766-19.514,110.742
		c25.174,35.959,74.758,44.712,110.725,19.522C514.071,333.66,522.792,284.068,497.618,248.108z" style="fill: rgb(79, 70, 229);"></path>
	<path class="st0" d="M302.155,266.276c0.677-24.489,9.518-63.94,49.599-104.38c15.911-16.046,54.478-40.512,126.604-37.713
		c24.25-1.348,30.978-24.241,29.639-36.366c-1.34-12.117-10.618-25.613-35.012-26.936c-32.309-1.754-110.98-12.276-196.594,69.616
		c-20.328,19.435-78.17,101.439-78.17,101.439s-32.444,41.556-80.226,80.154L0,420.35c35.521,1.833,36.765,32.15,74.486,32.15
		c38.918,0,38.918-32.325,77.818-32.325c38.886,0,38.886,32.325,77.787,32.325s38.901-32.325,77.818-32.325
		c35.569,0,38.694,26.968,68.716,31.584c-10.125-28.236-34.015-67.408-56.408-104.93
		C310.318,330.224,301.429,292.263,302.155,266.276z" style="fill: rgb(79, 70, 229);"></path>
</g>
</svg>
